<svg xmlns="http://www.w3.org/2000/svg" width="830" height="260" viewBox="0 0 830 260" role="img"><rect x="0.5" y="0.5" width="829" height="259" rx="6" fill="#ffffff" stroke="#d0d7de"/><text x="24" y="32" fill="#1f2328" font-family="SFMono-Regular, Consolas, 'Liberation Mono', Menlo, monospace" font-size="14" font-weight="bold" letter-spacing="1">CHENGDU · 24 H FORECAST · CST (UTC+8)</text><line x1="560" y1="27" x2="580" y2="27" stroke="#9a6700" stroke-width="1.5"/><text x="586" y="31" fill="#57606a" font-family="SFMono-Regular, Consolas, 'Liberation Mono', Menlo, monospace" font-size="12">2 m temp °C</text><line x1="692" y1="27" x2="712" y2="27" stroke="#0969da" stroke-width="1.5"/><text x="718" y="31" fill="#57606a" font-family="SFMono-Regular, Consolas, 'Liberation Mono', Menlo, monospace" font-size="12">10 m wind kt</text><line x1="56" y1="120.0" x2="806" y2="120.0" stroke="#d0d7de" stroke-width="1"/><text x="48" y="124.0" fill="#57606a" font-family="SFMono-Regular, Consolas, 'Liberation Mono', Menlo, monospace" font-size="12" text-anchor="end">20</text><line x1="56" y1="97.3" x2="806" y2="97.3" stroke="#d0d7de" stroke-width="1"/><text x="48" y="101.3" fill="#57606a" font-family="SFMono-Regular, Consolas, 'Liberation Mono', Menlo, monospace" font-size="12" text-anchor="end">25</text><line x1="56" y1="74.7" x2="806" y2="74.7" stroke="#d0d7de" stroke-width="1"/><text x="48" y="78.7" fill="#57606a" font-family="SFMono-Regular, Consolas, 'Liberation Mono', Menlo, monospace" font-size="12" text-anchor="end">30</text><line x1="56" y1="52.0" x2="806" y2="52.0" stroke="#d0d7de" stroke-width="1"/><text x="48" y="56.0" fill="#57606a" font-family="SFMono-Regular, Consolas, 'Liberation Mono', Menlo, monospace" font-size="12" text-anchor="end">35</text><polyline points="56.0,99.6 88.6,97.3 121.2,93.7 153.8,88.7 186.4,81.9 219.0,73.8 251.7,66.5 284.3,61.5 316.9,57.9 349.5,55.6 382.1,55.2 414.7,56.5 447.3,59.3 479.9,63.8 512.5,69.2 545.1,74.7 577.7,78.3 610.3,81.0 643.0,84.2 675.6,87.8 708.2,91.4 740.8,94.6 773.4,97.3 806.0,99.1" fill="none" stroke="#9a6700" stroke-width="1.5" stroke-linejoin="round"/><line x1="56" y1="224.0" x2="806" y2="224.0" stroke="#d0d7de" stroke-width="1"/><text x="48" y="228.0" fill="#57606a" font-family="SFMono-Regular, Consolas, 'Liberation Mono', Menlo, monospace" font-size="12" text-anchor="end">0</text><line x1="56" y1="210.8" x2="806" y2="210.8" stroke="#d0d7de" stroke-width="1"/><text x="48" y="214.8" fill="#57606a" font-family="SFMono-Regular, Consolas, 'Liberation Mono', Menlo, monospace" font-size="12" text-anchor="end">1</text><line x1="56" y1="197.6" x2="806" y2="197.6" stroke="#d0d7de" stroke-width="1"/><text x="48" y="201.6" fill="#57606a" font-family="SFMono-Regular, Consolas, 'Liberation Mono', Menlo, monospace" font-size="12" text-anchor="end">2</text><line x1="56" y1="184.4" x2="806" y2="184.4" stroke="#d0d7de" stroke-width="1"/><text x="48" y="188.4" fill="#57606a" font-family="SFMono-Regular, Consolas, 'Liberation Mono', Menlo, monospace" font-size="12" text-anchor="end">3</text><line x1="56" y1="171.2" x2="806" y2="171.2" stroke="#d0d7de" stroke-width="1"/><text x="48" y="175.2" fill="#57606a" font-family="SFMono-Regular, Consolas, 'Liberation Mono', Menlo, monospace" font-size="12" text-anchor="end">4</text><line x1="56" y1="158.0" x2="806" y2="158.0" stroke="#d0d7de" stroke-width="1"/><text x="48" y="162.0" fill="#57606a" font-family="SFMono-Regular, Consolas, 'Liberation Mono', Menlo, monospace" font-size="12" text-anchor="end">5</text><polyline points="56.0,210.8 88.6,200.2 121.2,184.4 153.8,173.8 186.4,179.1 219.0,191.0 251.7,193.6 284.3,193.6 316.9,184.4 349.5,175.2 382.1,167.2 414.7,164.6 447.3,168.6 479.9,177.8 512.5,191.0 545.1,195.0 577.7,200.2 610.3,210.8 643.0,214.8 675.6,217.4 708.2,213.4 740.8,210.8 773.4,210.8 806.0,213.4" fill="none" stroke="#0969da" stroke-width="1.5" stroke-linejoin="round"/><circle cx="56.0" cy="139" r="2.5" fill="none" stroke="#0969da" stroke-width="1"/><text x="56.0" y="240" fill="#57606a" font-family="SFMono-Regular, Consolas, 'Liberation Mono', Menlo, monospace" font-size="12" text-anchor="middle">05</text><g ><line x1="153.8" y1="139" x2="156.5" y2="126.3" stroke="#0969da" stroke-width="1"/><line x1="156.5" y1="126.3" x2="159.9" y2="125.5" stroke="#0969da" stroke-width="1"/></g><text x="153.8" y="240" fill="#57606a" font-family="SFMono-Regular, Consolas, 'Liberation Mono', Menlo, monospace" font-size="12" text-anchor="middle">08</text><circle cx="251.7" cy="139" r="2.5" fill="none" stroke="#0969da" stroke-width="1"/><text x="251.7" y="240" fill="#57606a" font-family="SFMono-Regular, Consolas, 'Liberation Mono', Menlo, monospace" font-size="12" text-anchor="middle">11</text><g ><line x1="349.5" y1="139" x2="350.9" y2="151.9" stroke="#0969da" stroke-width="1"/><line x1="350.9" y1="151.9" x2="347.9" y2="153.7" stroke="#0969da" stroke-width="1"/></g><text x="349.5" y="240" fill="#57606a" font-family="SFMono-Regular, Consolas, 'Liberation Mono', Menlo, monospace" font-size="12" text-anchor="middle">14</text><g ><line x1="447.3" y1="139" x2="444.4" y2="151.7" stroke="#0969da" stroke-width="1"/><line x1="444.4" y1="151.7" x2="441.0" y2="152.4" stroke="#0969da" stroke-width="1"/></g><text x="447.3" y="240" fill="#57606a" font-family="SFMono-Regular, Consolas, 'Liberation Mono', Menlo, monospace" font-size="12" text-anchor="middle">17</text><circle cx="545.1" cy="139" r="2.5" fill="none" stroke="#0969da" stroke-width="1"/><text x="545.1" y="240" fill="#57606a" font-family="SFMono-Regular, Consolas, 'Liberation Mono', Menlo, monospace" font-size="12" text-anchor="middle">20</text><circle cx="643.0" cy="139" r="2.5" fill="none" stroke="#0969da" stroke-width="1"/><text x="643.0" y="240" fill="#57606a" font-family="SFMono-Regular, Consolas, 'Liberation Mono', Menlo, monospace" font-size="12" text-anchor="middle">23</text><circle cx="740.8" cy="139" r="2.5" fill="none" stroke="#0969da" stroke-width="1"/><text x="740.8" y="240" fill="#57606a" font-family="SFMono-Regular, Consolas, 'Liberation Mono', Menlo, monospace" font-size="12" text-anchor="middle">02</text><text x="24" y="254" fill="#57606a" font-family="SFMono-Regular, Consolas, 'Liberation Mono', Menlo, monospace" font-size="12">ECMWF IFS via Open-Meteo (CC-BY 4.0) · generated 2026-08-13 21:57Z · refreshed daily by GitHub Actions</text></svg>
