<svg xmlns="http://www.w3.org/2000/svg" width="830" height="260" viewBox="0 0 830 260" role="img"><rect x="0.5" y="0.5" width="829" height="259" rx="6" fill="#0d1117" stroke="#30363d"/><text x="24" y="32" fill="#c9d1d9" font-family="SFMono-Regular, Consolas, 'Liberation Mono', Menlo, monospace" font-size="14" font-weight="bold" letter-spacing="1">CHENGDU · 24 H FORECAST · CST (UTC+8)</text><line x1="560" y1="27" x2="580" y2="27" stroke="#d29922" stroke-width="1.5"/><text x="586" y="31" fill="#8b949e" font-family="SFMono-Regular, Consolas, 'Liberation Mono', Menlo, monospace" font-size="12">2 m temp °C</text><line x1="692" y1="27" x2="712" y2="27" stroke="#58a6ff" stroke-width="1.5"/><text x="718" y="31" fill="#8b949e" font-family="SFMono-Regular, Consolas, 'Liberation Mono', Menlo, monospace" font-size="12">10 m wind kt</text><line x1="56" y1="120.0" x2="806" y2="120.0" stroke="#30363d" stroke-width="1"/><text x="48" y="124.0" fill="#8b949e" font-family="SFMono-Regular, Consolas, 'Liberation Mono', Menlo, monospace" font-size="12" text-anchor="end">22</text><line x1="56" y1="86.0" x2="806" y2="86.0" stroke="#30363d" stroke-width="1"/><text x="48" y="90.0" fill="#8b949e" font-family="SFMono-Regular, Consolas, 'Liberation Mono', Menlo, monospace" font-size="12" text-anchor="end">22.5</text><line x1="56" y1="52.0" x2="806" y2="52.0" stroke="#30363d" stroke-width="1"/><text x="48" y="56.0" fill="#8b949e" font-family="SFMono-Regular, Consolas, 'Liberation Mono', Menlo, monospace" font-size="12" text-anchor="end">23</text><polyline points="56.0,79.2 88.6,92.8 121.2,106.4 153.8,106.4 186.4,99.6 219.0,86.0 251.7,79.2 284.3,65.6 316.9,52.0 349.5,38.4 382.1,38.4 414.7,45.2 447.3,52.0 479.9,58.8 512.5,72.4 545.1,79.2 577.7,86.0 610.3,86.0 643.0,86.0 675.6,86.0 708.2,86.0 740.8,86.0 773.4,92.8 806.0,99.6" fill="none" stroke="#d29922" stroke-width="1.5" stroke-linejoin="round"/><line x1="56" y1="224.0" x2="806" y2="224.0" stroke="#30363d" stroke-width="1"/><text x="48" y="228.0" fill="#8b949e" font-family="SFMono-Regular, Consolas, 'Liberation Mono', Menlo, monospace" font-size="12" text-anchor="end">2</text><line x1="56" y1="202.0" x2="806" y2="202.0" stroke="#30363d" stroke-width="1"/><text x="48" y="206.0" fill="#8b949e" font-family="SFMono-Regular, Consolas, 'Liberation Mono', Menlo, monospace" font-size="12" text-anchor="end">4</text><line x1="56" y1="180.0" x2="806" y2="180.0" stroke="#30363d" stroke-width="1"/><text x="48" y="184.0" fill="#8b949e" font-family="SFMono-Regular, Consolas, 'Liberation Mono', Menlo, monospace" font-size="12" text-anchor="end">6</text><line x1="56" y1="158.0" x2="806" y2="158.0" stroke="#30363d" stroke-width="1"/><text x="48" y="162.0" fill="#8b949e" font-family="SFMono-Regular, Consolas, 'Liberation Mono', Menlo, monospace" font-size="12" text-anchor="end">8</text><polyline points="56.0,156.9 88.6,158.0 121.2,162.4 153.8,169.0 186.4,174.5 219.0,184.4 251.7,189.9 284.3,189.9 316.9,187.7 349.5,183.3 382.1,178.9 414.7,173.4 447.3,169.0 479.9,173.4 512.5,181.1 545.1,188.8 577.7,195.4 610.3,200.9 643.0,205.3 675.6,207.5 708.2,204.2 740.8,200.9 773.4,202.0 806.0,198.7" fill="none" stroke="#58a6ff" stroke-width="1.5" stroke-linejoin="round"/><g ><line x1="56.0" y1="139" x2="54.2" y2="126.1" stroke="#58a6ff" stroke-width="1"/><line x1="54.2" y1="126.1" x2="59.6" y2="122.6" stroke="#58a6ff" stroke-width="1"/></g><text x="56.0" y="240" fill="#8b949e" font-family="SFMono-Regular, Consolas, 'Liberation Mono', Menlo, monospace" font-size="12" text-anchor="middle">05</text><g ><line x1="153.8" y1="139" x2="155.2" y2="126.1" stroke="#58a6ff" stroke-width="1"/><line x1="155.2" y1="126.1" x2="158.5" y2="124.9" stroke="#58a6ff" stroke-width="1"/></g><text x="153.8" y="240" fill="#8b949e" font-family="SFMono-Regular, Consolas, 'Liberation Mono', Menlo, monospace" font-size="12" text-anchor="middle">08</text><g ><line x1="251.7" y1="139" x2="251.2" y2="126.0" stroke="#58a6ff" stroke-width="1"/><line x1="251.2" y1="126.0" x2="254.4" y2="124.4" stroke="#58a6ff" stroke-width="1"/></g><text x="251.7" y="240" fill="#8b949e" font-family="SFMono-Regular, Consolas, 'Liberation Mono', Menlo, monospace" font-size="12" text-anchor="middle">11</text><g ><line x1="349.5" y1="139" x2="345.5" y2="126.6" stroke="#58a6ff" stroke-width="1"/><line x1="345.5" y1="126.6" x2="348.0" y2="124.2" stroke="#58a6ff" stroke-width="1"/></g><text x="349.5" y="240" fill="#8b949e" font-family="SFMono-Regular, Consolas, 'Liberation Mono', Menlo, monospace" font-size="12" text-anchor="middle">14</text><g ><line x1="447.3" y1="139" x2="448.7" y2="126.1" stroke="#58a6ff" stroke-width="1"/><line x1="448.7" y1="126.1" x2="452.0" y2="124.9" stroke="#58a6ff" stroke-width="1"/></g><text x="447.3" y="240" fill="#8b949e" font-family="SFMono-Regular, Consolas, 'Liberation Mono', Menlo, monospace" font-size="12" text-anchor="middle">17</text><g ><line x1="545.1" y1="139" x2="541.7" y2="126.4" stroke="#58a6ff" stroke-width="1"/><line x1="541.7" y1="126.4" x2="544.4" y2="124.2" stroke="#58a6ff" stroke-width="1"/></g><text x="545.1" y="240" fill="#8b949e" font-family="SFMono-Regular, Consolas, 'Liberation Mono', Menlo, monospace" font-size="12" text-anchor="middle">20</text><g ><line x1="643.0" y1="139" x2="643.7" y2="126.0" stroke="#58a6ff" stroke-width="1"/><line x1="643.7" y1="126.0" x2="646.9" y2="124.7" stroke="#58a6ff" stroke-width="1"/></g><text x="643.0" y="240" fill="#8b949e" font-family="SFMono-Regular, Consolas, 'Liberation Mono', Menlo, monospace" font-size="12" text-anchor="middle">23</text><g ><line x1="740.8" y1="139" x2="735.3" y2="127.2" stroke="#58a6ff" stroke-width="1"/><line x1="735.3" y1="127.2" x2="737.6" y2="124.5" stroke="#58a6ff" stroke-width="1"/></g><text x="740.8" y="240" fill="#8b949e" font-family="SFMono-Regular, Consolas, 'Liberation Mono', Menlo, monospace" font-size="12" text-anchor="middle">02</text><text x="24" y="254" fill="#8b949e" font-family="SFMono-Regular, Consolas, 'Liberation Mono', Menlo, monospace" font-size="12">ECMWF IFS via Open-Meteo (CC-BY 4.0) · generated 2026-08-16 21:30Z · refreshed daily by GitHub Actions</text></svg>
