<svg xmlns="http://www.w3.org/2000/svg" width="830" height="260" viewBox="0 0 830 260" role="img"><rect x="0.5" y="0.5" width="829" height="259" rx="6" fill="#ffffff" stroke="#d0d7de"/><text x="24" y="32" fill="#1f2328" font-family="SFMono-Regular, Consolas, 'Liberation Mono', Menlo, monospace" font-size="14" font-weight="bold" letter-spacing="1">CHENGDU · 24 H FORECAST · CST (UTC+8)</text><line x1="560" y1="27" x2="580" y2="27" stroke="#9a6700" stroke-width="1.5"/><text x="586" y="31" fill="#57606a" font-family="SFMono-Regular, Consolas, 'Liberation Mono', Menlo, monospace" font-size="12">2 m temp °C</text><line x1="692" y1="27" x2="712" y2="27" stroke="#0969da" stroke-width="1.5"/><text x="718" y="31" fill="#57606a" font-family="SFMono-Regular, Consolas, 'Liberation Mono', Menlo, monospace" font-size="12">10 m wind kt</text><line x1="56" y1="120.0" x2="806" y2="120.0" stroke="#d0d7de" stroke-width="1"/><text x="48" y="124.0" fill="#57606a" font-family="SFMono-Regular, Consolas, 'Liberation Mono', Menlo, monospace" font-size="12" text-anchor="end">18</text><line x1="56" y1="97.3" x2="806" y2="97.3" stroke="#d0d7de" stroke-width="1"/><text x="48" y="101.3" fill="#57606a" font-family="SFMono-Regular, Consolas, 'Liberation Mono', Menlo, monospace" font-size="12" text-anchor="end">20</text><line x1="56" y1="74.7" x2="806" y2="74.7" stroke="#d0d7de" stroke-width="1"/><text x="48" y="78.7" fill="#57606a" font-family="SFMono-Regular, Consolas, 'Liberation Mono', Menlo, monospace" font-size="12" text-anchor="end">22</text><line x1="56" y1="52.0" x2="806" y2="52.0" stroke="#d0d7de" stroke-width="1"/><text x="48" y="56.0" fill="#57606a" font-family="SFMono-Regular, Consolas, 'Liberation Mono', Menlo, monospace" font-size="12" text-anchor="end">24</text><polyline points="56.0,92.8 88.6,91.7 121.2,86.0 153.8,76.9 186.4,69.0 219.0,61.1 251.7,53.1 284.3,47.5 316.9,47.5 349.5,50.9 382.1,55.4 414.7,59.9 447.3,64.5 479.9,70.1 512.5,74.7 545.1,80.3 577.7,83.7 610.3,86.0 643.0,88.3 675.6,90.5 708.2,93.9 740.8,99.6 773.4,101.9 806.0,100.7" fill="none" stroke="#9a6700" stroke-width="1.5" stroke-linejoin="round"/><line x1="56" y1="224.0" x2="806" y2="224.0" stroke="#d0d7de" stroke-width="1"/><text x="48" y="228.0" fill="#57606a" font-family="SFMono-Regular, Consolas, 'Liberation Mono', Menlo, monospace" font-size="12" text-anchor="end">0</text><line x1="56" y1="207.5" x2="806" y2="207.5" stroke="#d0d7de" stroke-width="1"/><text x="48" y="211.5" fill="#57606a" font-family="SFMono-Regular, Consolas, 'Liberation Mono', Menlo, monospace" font-size="12" text-anchor="end">1</text><line x1="56" y1="191.0" x2="806" y2="191.0" stroke="#d0d7de" stroke-width="1"/><text x="48" y="195.0" fill="#57606a" font-family="SFMono-Regular, Consolas, 'Liberation Mono', Menlo, monospace" font-size="12" text-anchor="end">2</text><line x1="56" y1="174.5" x2="806" y2="174.5" stroke="#d0d7de" stroke-width="1"/><text x="48" y="178.5" fill="#57606a" font-family="SFMono-Regular, Consolas, 'Liberation Mono', Menlo, monospace" font-size="12" text-anchor="end">3</text><line x1="56" y1="158.0" x2="806" y2="158.0" stroke="#d0d7de" stroke-width="1"/><text x="48" y="162.0" fill="#57606a" font-family="SFMono-Regular, Consolas, 'Liberation Mono', Menlo, monospace" font-size="12" text-anchor="end">4</text><polyline points="56.0,195.9 88.6,192.7 121.2,189.3 153.8,184.4 186.4,181.1 219.0,174.5 251.7,164.6 284.3,156.4 316.9,153.1 349.5,151.4 382.1,158.0 414.7,177.8 447.3,187.7 479.9,181.1 512.5,184.4 545.1,189.3 577.7,187.7 610.3,187.7 643.0,187.7 675.6,191.0 708.2,200.9 740.8,217.4 773.4,217.4 806.0,217.4" fill="none" stroke="#0969da" stroke-width="1.5" stroke-linejoin="round"/><circle cx="56.0" cy="139" r="2.5" fill="none" stroke="#0969da" stroke-width="1"/><text x="56.0" y="240" fill="#57606a" font-family="SFMono-Regular, Consolas, 'Liberation Mono', Menlo, monospace" font-size="12" text-anchor="middle">07</text><circle cx="153.8" cy="139" r="2.5" fill="none" stroke="#0969da" stroke-width="1"/><text x="153.8" y="240" fill="#57606a" font-family="SFMono-Regular, Consolas, 'Liberation Mono', Menlo, monospace" font-size="12" text-anchor="middle">10</text><g ><line x1="251.7" y1="139" x2="261.5" y2="130.5" stroke="#0969da" stroke-width="1"/><line x1="261.5" y1="130.5" x2="264.7" y2="131.9" stroke="#0969da" stroke-width="1"/></g><text x="251.7" y="240" fill="#57606a" font-family="SFMono-Regular, Consolas, 'Liberation Mono', Menlo, monospace" font-size="12" text-anchor="middle">13</text><g ><line x1="349.5" y1="139" x2="359.7" y2="131.0" stroke="#0969da" stroke-width="1"/><line x1="359.7" y1="131.0" x2="362.9" y2="132.6" stroke="#0969da" stroke-width="1"/></g><text x="349.5" y="240" fill="#57606a" font-family="SFMono-Regular, Consolas, 'Liberation Mono', Menlo, monospace" font-size="12" text-anchor="middle">16</text><circle cx="447.3" cy="139" r="2.5" fill="none" stroke="#0969da" stroke-width="1"/><text x="447.3" y="240" fill="#57606a" font-family="SFMono-Regular, Consolas, 'Liberation Mono', Menlo, monospace" font-size="12" text-anchor="middle">19</text><circle cx="545.1" cy="139" r="2.5" fill="none" stroke="#0969da" stroke-width="1"/><text x="545.1" y="240" fill="#57606a" font-family="SFMono-Regular, Consolas, 'Liberation Mono', Menlo, monospace" font-size="12" text-anchor="middle">22</text><circle cx="643.0" cy="139" r="2.5" fill="none" stroke="#0969da" stroke-width="1"/><text x="643.0" y="240" fill="#57606a" font-family="SFMono-Regular, Consolas, 'Liberation Mono', Menlo, monospace" font-size="12" text-anchor="middle">01</text><circle cx="740.8" cy="139" r="2.5" fill="none" stroke="#0969da" stroke-width="1"/><text x="740.8" y="240" fill="#57606a" font-family="SFMono-Regular, Consolas, 'Liberation Mono', Menlo, monospace" font-size="12" text-anchor="middle">04</text><text x="24" y="254" fill="#57606a" font-family="SFMono-Regular, Consolas, 'Liberation Mono', Menlo, monospace" font-size="12">ECMWF IFS via Open-Meteo (CC-BY 4.0) · generated 2026-09-17 23:31Z · refreshed daily by GitHub Actions</text></svg>
