<svg xmlns="http://www.w3.org/2000/svg" width="830" height="260" viewBox="0 0 830 260" role="img"><rect x="0.5" y="0.5" width="829" height="259" rx="6" fill="#ffffff" stroke="#d0d7de"/><text x="24" y="32" fill="#1f2328" font-family="SFMono-Regular, Consolas, 'Liberation Mono', Menlo, monospace" font-size="14" font-weight="bold" letter-spacing="1">CHENGDU · 24 H FORECAST · CST (UTC+8)</text><line x1="560" y1="27" x2="580" y2="27" stroke="#9a6700" stroke-width="1.5"/><text x="586" y="31" fill="#57606a" font-family="SFMono-Regular, Consolas, 'Liberation Mono', Menlo, monospace" font-size="12">2 m temp °C</text><line x1="692" y1="27" x2="712" y2="27" stroke="#0969da" stroke-width="1.5"/><text x="718" y="31" fill="#57606a" font-family="SFMono-Regular, Consolas, 'Liberation Mono', Menlo, monospace" font-size="12">10 m wind kt</text><line x1="56" y1="120.0" x2="806" y2="120.0" stroke="#d0d7de" stroke-width="1"/><text x="48" y="124.0" fill="#57606a" font-family="SFMono-Regular, Consolas, 'Liberation Mono', Menlo, monospace" font-size="12" text-anchor="end">20</text><line x1="56" y1="86.0" x2="806" y2="86.0" stroke="#d0d7de" stroke-width="1"/><text x="48" y="90.0" fill="#57606a" font-family="SFMono-Regular, Consolas, 'Liberation Mono', Menlo, monospace" font-size="12" text-anchor="end">25</text><line x1="56" y1="52.0" x2="806" y2="52.0" stroke="#d0d7de" stroke-width="1"/><text x="48" y="56.0" fill="#57606a" font-family="SFMono-Regular, Consolas, 'Liberation Mono', Menlo, monospace" font-size="12" text-anchor="end">30</text><polyline points="56.0,105.7 88.6,98.9 121.2,86.7 153.8,70.4 186.4,56.8 219.0,49.3 251.7,44.5 284.3,41.8 316.9,40.4 349.5,40.4 382.1,43.8 414.7,50.6 447.3,60.2 479.9,68.3 512.5,73.8 545.1,78.5 577.7,82.6 610.3,86.0 643.0,89.4 675.6,92.8 708.2,96.2 740.8,98.9 773.4,100.3 806.0,101.0" fill="none" stroke="#9a6700" stroke-width="1.5" stroke-linejoin="round"/><line x1="56" y1="224.0" x2="806" y2="224.0" stroke="#d0d7de" stroke-width="1"/><text x="48" y="228.0" fill="#57606a" font-family="SFMono-Regular, Consolas, 'Liberation Mono', Menlo, monospace" font-size="12" text-anchor="end">0</text><line x1="56" y1="202.0" x2="806" y2="202.0" stroke="#d0d7de" stroke-width="1"/><text x="48" y="206.0" fill="#57606a" font-family="SFMono-Regular, Consolas, 'Liberation Mono', Menlo, monospace" font-size="12" text-anchor="end">1</text><line x1="56" y1="180.0" x2="806" y2="180.0" stroke="#d0d7de" stroke-width="1"/><text x="48" y="184.0" fill="#57606a" font-family="SFMono-Regular, Consolas, 'Liberation Mono', Menlo, monospace" font-size="12" text-anchor="end">2</text><line x1="56" y1="158.0" x2="806" y2="158.0" stroke="#d0d7de" stroke-width="1"/><text x="48" y="162.0" fill="#57606a" font-family="SFMono-Regular, Consolas, 'Liberation Mono', Menlo, monospace" font-size="12" text-anchor="end">3</text><polyline points="56.0,210.8 88.6,208.6 121.2,206.4 153.8,199.8 186.4,186.6 219.0,180.0 251.7,173.4 284.3,169.0 316.9,166.8 349.5,160.2 382.1,153.6 414.7,151.4 447.3,160.2 479.9,162.4 512.5,180.0 545.1,202.0 577.7,210.8 610.3,197.6 643.0,186.6 675.6,180.0 708.2,184.4 740.8,193.2 773.4,202.0 806.0,206.4" fill="none" stroke="#0969da" stroke-width="1.5" stroke-linejoin="round"/><circle cx="56.0" cy="139" r="2.5" fill="none" stroke="#0969da" stroke-width="1"/><text x="56.0" y="240" fill="#57606a" font-family="SFMono-Regular, Consolas, 'Liberation Mono', Menlo, monospace" font-size="12" text-anchor="middle">07</text><circle cx="153.8" cy="139" r="2.5" fill="none" stroke="#0969da" stroke-width="1"/><text x="153.8" y="240" fill="#57606a" font-family="SFMono-Regular, Consolas, 'Liberation Mono', Menlo, monospace" font-size="12" text-anchor="middle">10</text><circle cx="251.7" cy="139" r="2.5" fill="none" stroke="#0969da" stroke-width="1"/><text x="251.7" y="240" fill="#57606a" font-family="SFMono-Regular, Consolas, 'Liberation Mono', Menlo, monospace" font-size="12" text-anchor="middle">13</text><g ><line x1="349.5" y1="139" x2="340.8" y2="148.7" stroke="#0969da" stroke-width="1"/><line x1="340.8" y1="148.7" x2="337.5" y2="147.6" stroke="#0969da" stroke-width="1"/></g><text x="349.5" y="240" fill="#57606a" font-family="SFMono-Regular, Consolas, 'Liberation Mono', Menlo, monospace" font-size="12" text-anchor="middle">16</text><g ><line x1="447.3" y1="139" x2="434.3" y2="138.1" stroke="#0969da" stroke-width="1"/><line x1="434.3" y1="138.1" x2="433.1" y2="134.8" stroke="#0969da" stroke-width="1"/></g><text x="447.3" y="240" fill="#57606a" font-family="SFMono-Regular, Consolas, 'Liberation Mono', Menlo, monospace" font-size="12" text-anchor="middle">19</text><circle cx="545.1" cy="139" r="2.5" fill="none" stroke="#0969da" stroke-width="1"/><text x="545.1" y="240" fill="#57606a" font-family="SFMono-Regular, Consolas, 'Liberation Mono', Menlo, monospace" font-size="12" text-anchor="middle">22</text><circle cx="643.0" cy="139" r="2.5" fill="none" stroke="#0969da" stroke-width="1"/><text x="643.0" y="240" fill="#57606a" font-family="SFMono-Regular, Consolas, 'Liberation Mono', Menlo, monospace" font-size="12" text-anchor="middle">01</text><circle cx="740.8" cy="139" r="2.5" fill="none" stroke="#0969da" stroke-width="1"/><text x="740.8" y="240" fill="#57606a" font-family="SFMono-Regular, Consolas, 'Liberation Mono', Menlo, monospace" font-size="12" text-anchor="middle">04</text><text x="24" y="254" fill="#57606a" font-family="SFMono-Regular, Consolas, 'Liberation Mono', Menlo, monospace" font-size="12">ECMWF IFS via Open-Meteo (CC-BY 4.0) · generated 2026-09-04 23:00Z · refreshed daily by GitHub Actions</text></svg>
