<svg xmlns="http://www.w3.org/2000/svg" width="830" height="260" viewBox="0 0 830 260" role="img"><rect x="0.5" y="0.5" width="829" height="259" rx="6" fill="#ffffff" stroke="#d0d7de"/><text x="24" y="32" fill="#1f2328" font-family="SFMono-Regular, Consolas, 'Liberation Mono', Menlo, monospace" font-size="14" font-weight="bold" letter-spacing="1">CHENGDU · 24 H FORECAST · CST (UTC+8)</text><line x1="560" y1="27" x2="580" y2="27" stroke="#9a6700" stroke-width="1.5"/><text x="586" y="31" fill="#57606a" font-family="SFMono-Regular, Consolas, 'Liberation Mono', Menlo, monospace" font-size="12">2 m temp °C</text><line x1="692" y1="27" x2="712" y2="27" stroke="#0969da" stroke-width="1.5"/><text x="718" y="31" fill="#57606a" font-family="SFMono-Regular, Consolas, 'Liberation Mono', Menlo, monospace" font-size="12">10 m wind kt</text><line x1="56" y1="120.0" x2="806" y2="120.0" stroke="#d0d7de" stroke-width="1"/><text x="48" y="124.0" fill="#57606a" font-family="SFMono-Regular, Consolas, 'Liberation Mono', Menlo, monospace" font-size="12" text-anchor="end">20</text><line x1="56" y1="86.0" x2="806" y2="86.0" stroke="#d0d7de" stroke-width="1"/><text x="48" y="90.0" fill="#57606a" font-family="SFMono-Regular, Consolas, 'Liberation Mono', Menlo, monospace" font-size="12" text-anchor="end">25</text><line x1="56" y1="52.0" x2="806" y2="52.0" stroke="#d0d7de" stroke-width="1"/><text x="48" y="56.0" fill="#57606a" font-family="SFMono-Regular, Consolas, 'Liberation Mono', Menlo, monospace" font-size="12" text-anchor="end">30</text><polyline points="56.0,113.2 88.6,111.2 121.2,106.4 153.8,96.2 186.4,83.3 219.0,72.4 251.7,63.6 284.3,56.8 316.9,51.3 349.5,48.6 382.1,47.2 414.7,48.6 447.3,54.7 479.9,64.2 512.5,72.4 545.1,78.5 577.7,84.0 610.3,88.7 643.0,92.8 675.6,95.5 708.2,98.2 740.8,101.0 773.4,104.4 806.0,105.0" fill="none" stroke="#9a6700" stroke-width="1.5" stroke-linejoin="round"/><line x1="56" y1="224.0" x2="806" y2="224.0" stroke="#d0d7de" stroke-width="1"/><text x="48" y="228.0" fill="#57606a" font-family="SFMono-Regular, Consolas, 'Liberation Mono', Menlo, monospace" font-size="12" text-anchor="end">0</text><line x1="56" y1="191.0" x2="806" y2="191.0" stroke="#d0d7de" stroke-width="1"/><text x="48" y="195.0" fill="#57606a" font-family="SFMono-Regular, Consolas, 'Liberation Mono', Menlo, monospace" font-size="12" text-anchor="end">2</text><line x1="56" y1="158.0" x2="806" y2="158.0" stroke="#d0d7de" stroke-width="1"/><text x="48" y="162.0" fill="#57606a" font-family="SFMono-Regular, Consolas, 'Liberation Mono', Menlo, monospace" font-size="12" text-anchor="end">4</text><polyline points="56.0,194.3 88.6,220.7 121.2,207.5 153.8,194.3 186.4,169.6 219.0,151.4 251.7,148.1 284.3,156.4 316.9,164.6 349.5,182.8 382.1,197.6 414.7,207.5 447.3,207.5 479.9,200.9 512.5,194.3 545.1,189.3 577.7,182.8 610.3,182.8 643.0,191.0 675.6,194.3 708.2,191.0 740.8,191.0 773.4,195.9 806.0,200.9" fill="none" stroke="#0969da" stroke-width="1.5" stroke-linejoin="round"/><circle cx="56.0" cy="139" r="2.5" fill="none" stroke="#0969da" stroke-width="1"/><text x="56.0" y="240" fill="#57606a" font-family="SFMono-Regular, Consolas, 'Liberation Mono', Menlo, monospace" font-size="12" text-anchor="middle">06</text><circle cx="153.8" cy="139" r="2.5" fill="none" stroke="#0969da" stroke-width="1"/><text x="153.8" y="240" fill="#57606a" font-family="SFMono-Regular, Consolas, 'Liberation Mono', Menlo, monospace" font-size="12" text-anchor="middle">09</text><g ><line x1="251.7" y1="139" x2="239.5" y2="143.4" stroke="#0969da" stroke-width="1"/><line x1="239.5" y1="143.4" x2="237.0" y2="141.0" stroke="#0969da" stroke-width="1"/></g><text x="251.7" y="240" fill="#57606a" font-family="SFMono-Regular, Consolas, 'Liberation Mono', Menlo, monospace" font-size="12" text-anchor="middle">12</text><circle cx="349.5" cy="139" r="2.5" fill="none" stroke="#0969da" stroke-width="1"/><text x="349.5" y="240" fill="#57606a" font-family="SFMono-Regular, Consolas, 'Liberation Mono', Menlo, monospace" font-size="12" text-anchor="middle">15</text><circle cx="447.3" cy="139" r="2.5" fill="none" stroke="#0969da" stroke-width="1"/><text x="447.3" y="240" fill="#57606a" font-family="SFMono-Regular, Consolas, 'Liberation Mono', Menlo, monospace" font-size="12" text-anchor="middle">18</text><circle cx="545.1" cy="139" r="2.5" fill="none" stroke="#0969da" stroke-width="1"/><text x="545.1" y="240" fill="#57606a" font-family="SFMono-Regular, Consolas, 'Liberation Mono', Menlo, monospace" font-size="12" text-anchor="middle">21</text><circle cx="643.0" cy="139" r="2.5" fill="none" stroke="#0969da" stroke-width="1"/><text x="643.0" y="240" fill="#57606a" font-family="SFMono-Regular, Consolas, 'Liberation Mono', Menlo, monospace" font-size="12" text-anchor="middle">00</text><circle cx="740.8" cy="139" r="2.5" fill="none" stroke="#0969da" stroke-width="1"/><text x="740.8" y="240" fill="#57606a" font-family="SFMono-Regular, Consolas, 'Liberation Mono', Menlo, monospace" font-size="12" text-anchor="middle">03</text><text x="24" y="254" fill="#57606a" font-family="SFMono-Regular, Consolas, 'Liberation Mono', Menlo, monospace" font-size="12">ECMWF IFS via Open-Meteo (CC-BY 4.0) · generated 2026-08-02 22:05Z · refreshed daily by GitHub Actions</text></svg>
