<svg xmlns="http://www.w3.org/2000/svg" width="830" height="260" viewBox="0 0 830 260" role="img"><rect x="0.5" y="0.5" width="829" height="259" rx="6" fill="#ffffff" stroke="#d0d7de"/><text x="24" y="32" fill="#1f2328" font-family="SFMono-Regular, Consolas, 'Liberation Mono', Menlo, monospace" font-size="14" font-weight="bold" letter-spacing="1">CHENGDU · 24 H FORECAST · CST (UTC+8)</text><line x1="560" y1="27" x2="580" y2="27" stroke="#9a6700" stroke-width="1.5"/><text x="586" y="31" fill="#57606a" font-family="SFMono-Regular, Consolas, 'Liberation Mono', Menlo, monospace" font-size="12">2 m temp °C</text><line x1="692" y1="27" x2="712" y2="27" stroke="#0969da" stroke-width="1.5"/><text x="718" y="31" fill="#57606a" font-family="SFMono-Regular, Consolas, 'Liberation Mono', Menlo, monospace" font-size="12">10 m wind kt</text><line x1="56" y1="120.0" x2="806" y2="120.0" stroke="#d0d7de" stroke-width="1"/><text x="48" y="124.0" fill="#57606a" font-family="SFMono-Regular, Consolas, 'Liberation Mono', Menlo, monospace" font-size="12" text-anchor="end">25</text><line x1="56" y1="97.3" x2="806" y2="97.3" stroke="#d0d7de" stroke-width="1"/><text x="48" y="101.3" fill="#57606a" font-family="SFMono-Regular, Consolas, 'Liberation Mono', Menlo, monospace" font-size="12" text-anchor="end">30</text><line x1="56" y1="74.7" x2="806" y2="74.7" stroke="#d0d7de" stroke-width="1"/><text x="48" y="78.7" fill="#57606a" font-family="SFMono-Regular, Consolas, 'Liberation Mono', Menlo, monospace" font-size="12" text-anchor="end">35</text><line x1="56" y1="52.0" x2="806" y2="52.0" stroke="#d0d7de" stroke-width="1"/><text x="48" y="56.0" fill="#57606a" font-family="SFMono-Regular, Consolas, 'Liberation Mono', Menlo, monospace" font-size="12" text-anchor="end">40</text><polyline points="56.0,112.3 88.6,110.9 121.2,107.3 153.8,98.7 186.4,87.8 219.0,78.3 251.7,71.9 284.3,67.0 316.9,63.3 349.5,60.6 382.1,58.8 414.7,60.2 447.3,65.6 479.9,74.7 512.5,83.3 545.1,91.9 577.7,101.0 610.3,107.8 643.0,112.7 675.6,115.9 708.2,117.7 740.8,119.1 773.4,119.5 806.0,119.1" fill="none" stroke="#9a6700" stroke-width="1.5" stroke-linejoin="round"/><line x1="56" y1="224.0" x2="806" y2="224.0" stroke="#d0d7de" stroke-width="1"/><text x="48" y="228.0" fill="#57606a" font-family="SFMono-Regular, Consolas, 'Liberation Mono', Menlo, monospace" font-size="12" text-anchor="end">0</text><line x1="56" y1="202.0" x2="806" y2="202.0" stroke="#d0d7de" stroke-width="1"/><text x="48" y="206.0" fill="#57606a" font-family="SFMono-Regular, Consolas, 'Liberation Mono', Menlo, monospace" font-size="12" text-anchor="end">2</text><line x1="56" y1="180.0" x2="806" y2="180.0" stroke="#d0d7de" stroke-width="1"/><text x="48" y="184.0" fill="#57606a" font-family="SFMono-Regular, Consolas, 'Liberation Mono', Menlo, monospace" font-size="12" text-anchor="end">4</text><line x1="56" y1="158.0" x2="806" y2="158.0" stroke="#d0d7de" stroke-width="1"/><text x="48" y="162.0" fill="#57606a" font-family="SFMono-Regular, Consolas, 'Liberation Mono', Menlo, monospace" font-size="12" text-anchor="end">6</text><polyline points="56.0,177.8 88.6,178.9 121.2,182.2 153.8,186.6 186.4,189.9 219.0,192.1 251.7,196.5 284.3,199.8 316.9,204.2 349.5,215.2 382.1,213.0 414.7,207.5 447.3,200.9 479.9,173.4 512.5,150.3 545.1,148.1 577.7,156.9 610.3,166.8 643.0,172.3 675.6,176.7 708.2,183.3 740.8,194.3 773.4,202.0 806.0,204.2" fill="none" stroke="#0969da" stroke-width="1.5" stroke-linejoin="round"/><g ><line x1="56.0" y1="139" x2="60.9" y2="126.9" stroke="#0969da" stroke-width="1"/><line x1="60.9" y1="126.9" x2="64.4" y2="126.8" stroke="#0969da" stroke-width="1"/></g><text x="56.0" y="240" fill="#57606a" font-family="SFMono-Regular, Consolas, 'Liberation Mono', Menlo, monospace" font-size="12" text-anchor="middle">06</text><g ><line x1="153.8" y1="139" x2="157.4" y2="126.5" stroke="#0969da" stroke-width="1"/><line x1="157.4" y1="126.5" x2="160.8" y2="126.0" stroke="#0969da" stroke-width="1"/></g><text x="153.8" y="240" fill="#57606a" font-family="SFMono-Regular, Consolas, 'Liberation Mono', Menlo, monospace" font-size="12" text-anchor="middle">09</text><circle cx="251.7" cy="139" r="2.5" fill="none" stroke="#0969da" stroke-width="1"/><text x="251.7" y="240" fill="#57606a" font-family="SFMono-Regular, Consolas, 'Liberation Mono', Menlo, monospace" font-size="12" text-anchor="middle">12</text><circle cx="349.5" cy="139" r="2.5" fill="none" stroke="#0969da" stroke-width="1"/><text x="349.5" y="240" fill="#57606a" font-family="SFMono-Regular, Consolas, 'Liberation Mono', Menlo, monospace" font-size="12" text-anchor="middle">15</text><circle cx="447.3" cy="139" r="2.5" fill="none" stroke="#0969da" stroke-width="1"/><text x="447.3" y="240" fill="#57606a" font-family="SFMono-Regular, Consolas, 'Liberation Mono', Menlo, monospace" font-size="12" text-anchor="middle">18</text><g ><line x1="545.1" y1="139" x2="552.0" y2="128.0" stroke="#0969da" stroke-width="1"/><line x1="552.0" y1="128.0" x2="555.5" y2="128.4" stroke="#0969da" stroke-width="1"/></g><text x="545.1" y="240" fill="#57606a" font-family="SFMono-Regular, Consolas, 'Liberation Mono', Menlo, monospace" font-size="12" text-anchor="middle">21</text><g ><line x1="643.0" y1="139" x2="646.8" y2="126.6" stroke="#0969da" stroke-width="1"/><line x1="646.8" y1="126.6" x2="650.3" y2="126.1" stroke="#0969da" stroke-width="1"/></g><text x="643.0" y="240" fill="#57606a" font-family="SFMono-Regular, Consolas, 'Liberation Mono', Menlo, monospace" font-size="12" text-anchor="middle">00</text><g ><line x1="740.8" y1="139" x2="739.0" y2="126.1" stroke="#0969da" stroke-width="1"/><line x1="739.0" y1="126.1" x2="741.9" y2="124.2" stroke="#0969da" stroke-width="1"/></g><text x="740.8" y="240" fill="#57606a" font-family="SFMono-Regular, Consolas, 'Liberation Mono', Menlo, monospace" font-size="12" text-anchor="middle">03</text><text x="24" y="254" fill="#57606a" font-family="SFMono-Regular, Consolas, 'Liberation Mono', Menlo, monospace" font-size="12">ECMWF IFS via Open-Meteo (CC-BY 4.0) · generated 2026-07-13 22:04Z · refreshed daily by GitHub Actions</text></svg>
