<svg xmlns="http://www.w3.org/2000/svg" width="830" height="260" viewBox="0 0 830 260" role="img"><rect x="0.5" y="0.5" width="829" height="259" rx="6" fill="#0d1117" stroke="#30363d"/><text x="24" y="32" fill="#c9d1d9" font-family="SFMono-Regular, Consolas, 'Liberation Mono', Menlo, monospace" font-size="14" font-weight="bold" letter-spacing="1">CHENGDU · 24 H FORECAST · CST (UTC+8)</text><line x1="560" y1="27" x2="580" y2="27" stroke="#d29922" stroke-width="1.5"/><text x="586" y="31" fill="#8b949e" font-family="SFMono-Regular, Consolas, 'Liberation Mono', Menlo, monospace" font-size="12">2 m temp °C</text><line x1="692" y1="27" x2="712" y2="27" stroke="#58a6ff" stroke-width="1.5"/><text x="718" y="31" fill="#8b949e" font-family="SFMono-Regular, Consolas, 'Liberation Mono', Menlo, monospace" font-size="12">10 m wind kt</text><line x1="56" y1="120.0" x2="806" y2="120.0" stroke="#30363d" stroke-width="1"/><text x="48" y="124.0" fill="#8b949e" font-family="SFMono-Regular, Consolas, 'Liberation Mono', Menlo, monospace" font-size="12" text-anchor="end">15</text><line x1="56" y1="86.0" x2="806" y2="86.0" stroke="#30363d" stroke-width="1"/><text x="48" y="90.0" fill="#8b949e" font-family="SFMono-Regular, Consolas, 'Liberation Mono', Menlo, monospace" font-size="12" text-anchor="end">20</text><line x1="56" y1="52.0" x2="806" y2="52.0" stroke="#30363d" stroke-width="1"/><text x="48" y="56.0" fill="#8b949e" font-family="SFMono-Regular, Consolas, 'Liberation Mono', Menlo, monospace" font-size="12" text-anchor="end">25</text><polyline points="56.0,113.2 88.6,107.1 121.2,94.2 153.8,78.5 186.4,64.9 219.0,56.8 251.7,50.6 284.3,47.9 316.9,49.3 349.5,53.4 382.1,58.8 414.7,66.3 447.3,74.4 479.9,80.6 512.5,83.3 545.1,84.0 577.7,84.6 610.3,86.0 643.0,88.0 675.6,89.4 708.2,90.1 740.8,90.8 773.4,91.4 806.0,92.1" fill="none" stroke="#d29922" stroke-width="1.5" stroke-linejoin="round"/><line x1="56" y1="224.0" x2="806" y2="224.0" stroke="#30363d" stroke-width="1"/><text x="48" y="228.0" fill="#8b949e" font-family="SFMono-Regular, Consolas, 'Liberation Mono', Menlo, monospace" font-size="12" text-anchor="end">0</text><line x1="56" y1="202.0" x2="806" y2="202.0" stroke="#30363d" stroke-width="1"/><text x="48" y="206.0" fill="#8b949e" font-family="SFMono-Regular, Consolas, 'Liberation Mono', Menlo, monospace" font-size="12" text-anchor="end">2</text><line x1="56" y1="180.0" x2="806" y2="180.0" stroke="#30363d" stroke-width="1"/><text x="48" y="184.0" fill="#8b949e" font-family="SFMono-Regular, Consolas, 'Liberation Mono', Menlo, monospace" font-size="12" text-anchor="end">4</text><line x1="56" y1="158.0" x2="806" y2="158.0" stroke="#30363d" stroke-width="1"/><text x="48" y="162.0" fill="#8b949e" font-family="SFMono-Regular, Consolas, 'Liberation Mono', Menlo, monospace" font-size="12" text-anchor="end">6</text><polyline points="56.0,198.7 88.6,202.0 121.2,208.6 153.8,213.0 186.4,213.0 219.0,219.6 251.7,210.8 284.3,197.6 316.9,187.7 349.5,175.6 382.1,167.9 414.7,171.2 447.3,180.0 479.9,187.7 512.5,191.0 545.1,194.3 577.7,194.3 610.3,194.3 643.0,192.1 675.6,192.1 708.2,189.9 740.8,188.8 773.4,186.6 806.0,184.4" fill="none" stroke="#58a6ff" stroke-width="1.5" stroke-linejoin="round"/><circle cx="56.0" cy="139" r="2.5" fill="none" stroke="#58a6ff" stroke-width="1"/><text x="56.0" y="240" fill="#8b949e" font-family="SFMono-Regular, Consolas, 'Liberation Mono', Menlo, monospace" font-size="12" text-anchor="middle">07</text><circle cx="153.8" cy="139" r="2.5" fill="none" stroke="#58a6ff" stroke-width="1"/><text x="153.8" y="240" fill="#8b949e" font-family="SFMono-Regular, Consolas, 'Liberation Mono', Menlo, monospace" font-size="12" text-anchor="middle">10</text><circle cx="251.7" cy="139" r="2.5" fill="none" stroke="#58a6ff" stroke-width="1"/><text x="251.7" y="240" fill="#8b949e" font-family="SFMono-Regular, Consolas, 'Liberation Mono', Menlo, monospace" font-size="12" text-anchor="middle">13</text><g ><line x1="349.5" y1="139" x2="360.9" y2="132.7" stroke="#58a6ff" stroke-width="1"/><line x1="360.9" y1="132.7" x2="363.7" y2="134.8" stroke="#58a6ff" stroke-width="1"/></g><text x="349.5" y="240" fill="#8b949e" font-family="SFMono-Regular, Consolas, 'Liberation Mono', Menlo, monospace" font-size="12" text-anchor="middle">16</text><g ><line x1="447.3" y1="139" x2="457.9" y2="131.5" stroke="#58a6ff" stroke-width="1"/><line x1="457.9" y1="131.5" x2="461.0" y2="133.3" stroke="#58a6ff" stroke-width="1"/></g><text x="447.3" y="240" fill="#8b949e" font-family="SFMono-Regular, Consolas, 'Liberation Mono', Menlo, monospace" font-size="12" text-anchor="middle">19</text><g ><line x1="545.1" y1="139" x2="549.8" y2="126.9" stroke="#58a6ff" stroke-width="1"/><line x1="549.8" y1="126.9" x2="553.3" y2="126.6" stroke="#58a6ff" stroke-width="1"/></g><text x="545.1" y="240" fill="#8b949e" font-family="SFMono-Regular, Consolas, 'Liberation Mono', Menlo, monospace" font-size="12" text-anchor="middle">22</text><g ><line x1="643.0" y1="139" x2="643.0" y2="126.0" stroke="#58a6ff" stroke-width="1"/><line x1="643.0" y1="126.0" x2="646.2" y2="124.5" stroke="#58a6ff" stroke-width="1"/></g><text x="643.0" y="240" fill="#8b949e" font-family="SFMono-Regular, Consolas, 'Liberation Mono', Menlo, monospace" font-size="12" text-anchor="middle">01</text><g ><line x1="740.8" y1="139" x2="743.3" y2="126.2" stroke="#58a6ff" stroke-width="1"/><line x1="743.3" y1="126.2" x2="746.7" y2="125.4" stroke="#58a6ff" stroke-width="1"/></g><text x="740.8" y="240" fill="#8b949e" font-family="SFMono-Regular, Consolas, 'Liberation Mono', Menlo, monospace" font-size="12" text-anchor="middle">04</text><text x="24" y="254" fill="#8b949e" font-family="SFMono-Regular, Consolas, 'Liberation Mono', Menlo, monospace" font-size="12">ECMWF IFS via Open-Meteo (CC-BY 4.0) · generated 2026-09-13 23:05Z · refreshed daily by GitHub Actions</text></svg>
