<svg xmlns="http://www.w3.org/2000/svg" width="830" height="260" viewBox="0 0 830 260" role="img"><rect x="0.5" y="0.5" width="829" height="259" rx="6" fill="#ffffff" stroke="#d0d7de"/><text x="24" y="32" fill="#1f2328" font-family="SFMono-Regular, Consolas, 'Liberation Mono', Menlo, monospace" font-size="14" font-weight="bold" letter-spacing="1">CHENGDU · 24 H FORECAST · CST (UTC+8)</text><line x1="560" y1="27" x2="580" y2="27" stroke="#9a6700" stroke-width="1.5"/><text x="586" y="31" fill="#57606a" font-family="SFMono-Regular, Consolas, 'Liberation Mono', Menlo, monospace" font-size="12">2 m temp °C</text><line x1="692" y1="27" x2="712" y2="27" stroke="#0969da" stroke-width="1.5"/><text x="718" y="31" fill="#57606a" font-family="SFMono-Regular, Consolas, 'Liberation Mono', Menlo, monospace" font-size="12">10 m wind kt</text><line x1="56" y1="120.0" x2="806" y2="120.0" stroke="#d0d7de" stroke-width="1"/><text x="48" y="124.0" fill="#57606a" font-family="SFMono-Regular, Consolas, 'Liberation Mono', Menlo, monospace" font-size="12" text-anchor="end">20</text><line x1="56" y1="103.0" x2="806" y2="103.0" stroke="#d0d7de" stroke-width="1"/><text x="48" y="107.0" fill="#57606a" font-family="SFMono-Regular, Consolas, 'Liberation Mono', Menlo, monospace" font-size="12" text-anchor="end">22</text><line x1="56" y1="86.0" x2="806" y2="86.0" stroke="#d0d7de" stroke-width="1"/><text x="48" y="90.0" fill="#57606a" font-family="SFMono-Regular, Consolas, 'Liberation Mono', Menlo, monospace" font-size="12" text-anchor="end">24</text><line x1="56" y1="69.0" x2="806" y2="69.0" stroke="#d0d7de" stroke-width="1"/><text x="48" y="73.0" fill="#57606a" font-family="SFMono-Regular, Consolas, 'Liberation Mono', Menlo, monospace" font-size="12" text-anchor="end">26</text><line x1="56" y1="52.0" x2="806" y2="52.0" stroke="#d0d7de" stroke-width="1"/><text x="48" y="56.0" fill="#57606a" font-family="SFMono-Regular, Consolas, 'Liberation Mono', Menlo, monospace" font-size="12" text-anchor="end">28</text><polyline points="56.0,114.1 88.6,110.6 121.2,102.1 153.8,90.2 186.4,79.2 219.0,69.9 251.7,61.4 284.3,56.2 316.9,56.2 349.5,59.6 382.1,64.8 414.7,71.6 447.3,80.9 479.9,87.7 512.5,91.9 545.1,94.5 577.7,96.2 610.3,98.8 643.0,100.4 675.6,102.1 708.2,105.6 740.8,108.9 773.4,112.4 806.0,114.9" fill="none" stroke="#9a6700" stroke-width="1.5" stroke-linejoin="round"/><line x1="56" y1="224.0" x2="806" y2="224.0" stroke="#d0d7de" stroke-width="1"/><text x="48" y="228.0" fill="#57606a" font-family="SFMono-Regular, Consolas, 'Liberation Mono', Menlo, monospace" font-size="12" text-anchor="end">0</text><line x1="56" y1="207.5" x2="806" y2="207.5" stroke="#d0d7de" stroke-width="1"/><text x="48" y="211.5" fill="#57606a" font-family="SFMono-Regular, Consolas, 'Liberation Mono', Menlo, monospace" font-size="12" text-anchor="end">1</text><line x1="56" y1="191.0" x2="806" y2="191.0" stroke="#d0d7de" stroke-width="1"/><text x="48" y="195.0" fill="#57606a" font-family="SFMono-Regular, Consolas, 'Liberation Mono', Menlo, monospace" font-size="12" text-anchor="end">2</text><line x1="56" y1="174.5" x2="806" y2="174.5" stroke="#d0d7de" stroke-width="1"/><text x="48" y="178.5" fill="#57606a" font-family="SFMono-Regular, Consolas, 'Liberation Mono', Menlo, monospace" font-size="12" text-anchor="end">3</text><line x1="56" y1="158.0" x2="806" y2="158.0" stroke="#d0d7de" stroke-width="1"/><text x="48" y="162.0" fill="#57606a" font-family="SFMono-Regular, Consolas, 'Liberation Mono', Menlo, monospace" font-size="12" text-anchor="end">4</text><polyline points="56.0,197.6 88.6,204.2 121.2,207.5 153.8,212.4 186.4,217.4 219.0,217.4 251.7,207.5 284.3,195.9 316.9,181.1 349.5,169.6 382.1,162.9 414.7,174.5 447.3,189.3 479.9,191.0 512.5,204.2 545.1,207.5 577.7,192.7 610.3,179.4 643.0,171.2 675.6,167.9 708.2,167.9 740.8,176.2 773.4,181.1 806.0,182.8" fill="none" stroke="#0969da" stroke-width="1.5" stroke-linejoin="round"/><circle cx="56.0" cy="139" r="2.5" fill="none" stroke="#0969da" stroke-width="1"/><text x="56.0" y="240" fill="#57606a" font-family="SFMono-Regular, Consolas, 'Liberation Mono', Menlo, monospace" font-size="12" text-anchor="middle">07</text><circle cx="153.8" cy="139" r="2.5" fill="none" stroke="#0969da" stroke-width="1"/><text x="153.8" y="240" fill="#57606a" font-family="SFMono-Regular, Consolas, 'Liberation Mono', Menlo, monospace" font-size="12" text-anchor="middle">10</text><circle cx="251.7" cy="139" r="2.5" fill="none" stroke="#0969da" stroke-width="1"/><text x="251.7" y="240" fill="#57606a" font-family="SFMono-Regular, Consolas, 'Liberation Mono', Menlo, monospace" font-size="12" text-anchor="middle">13</text><g ><line x1="349.5" y1="139" x2="354.2" y2="126.9" stroke="#0969da" stroke-width="1"/><line x1="354.2" y1="126.9" x2="357.7" y2="126.6" stroke="#0969da" stroke-width="1"/></g><text x="349.5" y="240" fill="#57606a" font-family="SFMono-Regular, Consolas, 'Liberation Mono', Menlo, monospace" font-size="12" text-anchor="middle">16</text><circle cx="447.3" cy="139" r="2.5" fill="none" stroke="#0969da" stroke-width="1"/><text x="447.3" y="240" fill="#57606a" font-family="SFMono-Regular, Consolas, 'Liberation Mono', Menlo, monospace" font-size="12" text-anchor="middle">19</text><circle cx="545.1" cy="139" r="2.5" fill="none" stroke="#0969da" stroke-width="1"/><text x="545.1" y="240" fill="#57606a" font-family="SFMono-Regular, Consolas, 'Liberation Mono', Menlo, monospace" font-size="12" text-anchor="middle">22</text><g ><line x1="643.0" y1="139" x2="632.8" y2="147.0" stroke="#0969da" stroke-width="1"/><line x1="632.8" y1="147.0" x2="629.6" y2="145.4" stroke="#0969da" stroke-width="1"/></g><text x="643.0" y="240" fill="#57606a" font-family="SFMono-Regular, Consolas, 'Liberation Mono', Menlo, monospace" font-size="12" text-anchor="middle">01</text><g ><line x1="740.8" y1="139" x2="731.1" y2="147.7" stroke="#0969da" stroke-width="1"/><line x1="731.1" y1="147.7" x2="727.9" y2="146.3" stroke="#0969da" stroke-width="1"/></g><text x="740.8" y="240" fill="#57606a" font-family="SFMono-Regular, Consolas, 'Liberation Mono', Menlo, monospace" font-size="12" text-anchor="middle">04</text><text x="24" y="254" fill="#57606a" font-family="SFMono-Regular, Consolas, 'Liberation Mono', Menlo, monospace" font-size="12">ECMWF IFS via Open-Meteo (CC-BY 4.0) · generated 2026-09-20 23:11Z · refreshed daily by GitHub Actions</text></svg>
