<svg xmlns="http://www.w3.org/2000/svg" width="830" height="260" viewBox="0 0 830 260" role="img"><rect x="0.5" y="0.5" width="829" height="259" rx="6" fill="#0d1117" stroke="#30363d"/><text x="24" y="32" fill="#c9d1d9" font-family="SFMono-Regular, Consolas, 'Liberation Mono', Menlo, monospace" font-size="14" font-weight="bold" letter-spacing="1">CHENGDU · 24 H FORECAST · CST (UTC+8)</text><line x1="560" y1="27" x2="580" y2="27" stroke="#d29922" stroke-width="1.5"/><text x="586" y="31" fill="#8b949e" font-family="SFMono-Regular, Consolas, 'Liberation Mono', Menlo, monospace" font-size="12">2 m temp °C</text><line x1="692" y1="27" x2="712" y2="27" stroke="#58a6ff" stroke-width="1.5"/><text x="718" y="31" fill="#8b949e" font-family="SFMono-Regular, Consolas, 'Liberation Mono', Menlo, monospace" font-size="12">10 m wind kt</text><line x1="56" y1="120.0" x2="806" y2="120.0" stroke="#30363d" stroke-width="1"/><text x="48" y="124.0" fill="#8b949e" font-family="SFMono-Regular, Consolas, 'Liberation Mono', Menlo, monospace" font-size="12" text-anchor="end">18</text><line x1="56" y1="97.3" x2="806" y2="97.3" stroke="#30363d" stroke-width="1"/><text x="48" y="101.3" fill="#8b949e" font-family="SFMono-Regular, Consolas, 'Liberation Mono', Menlo, monospace" font-size="12" text-anchor="end">20</text><line x1="56" y1="74.7" x2="806" y2="74.7" stroke="#30363d" stroke-width="1"/><text x="48" y="78.7" fill="#8b949e" font-family="SFMono-Regular, Consolas, 'Liberation Mono', Menlo, monospace" font-size="12" text-anchor="end">22</text><line x1="56" y1="52.0" x2="806" y2="52.0" stroke="#30363d" stroke-width="1"/><text x="48" y="56.0" fill="#8b949e" font-family="SFMono-Regular, Consolas, 'Liberation Mono', Menlo, monospace" font-size="12" text-anchor="end">24</text><polyline points="56.0,118.9 88.6,117.7 121.2,115.5 153.8,112.1 186.4,104.1 219.0,89.4 251.7,71.3 284.3,56.5 316.9,49.7 349.5,46.3 382.1,48.6 414.7,57.7 447.3,72.4 479.9,83.7 512.5,91.7 545.1,96.2 577.7,100.7 610.3,104.1 643.0,106.4 675.6,108.7 708.2,108.7 740.8,109.8 773.4,108.7 806.0,108.7" fill="none" stroke="#d29922" stroke-width="1.5" stroke-linejoin="round"/><line x1="56" y1="224.0" x2="806" y2="224.0" stroke="#30363d" stroke-width="1"/><text x="48" y="228.0" fill="#8b949e" font-family="SFMono-Regular, Consolas, 'Liberation Mono', Menlo, monospace" font-size="12" text-anchor="end">0</text><line x1="56" y1="202.0" x2="806" y2="202.0" stroke="#30363d" stroke-width="1"/><text x="48" y="206.0" fill="#8b949e" font-family="SFMono-Regular, Consolas, 'Liberation Mono', Menlo, monospace" font-size="12" text-anchor="end">1</text><line x1="56" y1="180.0" x2="806" y2="180.0" stroke="#30363d" stroke-width="1"/><text x="48" y="184.0" fill="#8b949e" font-family="SFMono-Regular, Consolas, 'Liberation Mono', Menlo, monospace" font-size="12" text-anchor="end">2</text><line x1="56" y1="158.0" x2="806" y2="158.0" stroke="#30363d" stroke-width="1"/><text x="48" y="162.0" fill="#8b949e" font-family="SFMono-Regular, Consolas, 'Liberation Mono', Menlo, monospace" font-size="12" text-anchor="end">3</text><polyline points="56.0,153.6 88.6,153.6 121.2,153.6 153.8,158.0 186.4,158.0 219.0,155.8 251.7,158.0 284.3,155.8 316.9,160.2 349.5,164.6 382.1,169.0 414.7,169.0 447.3,177.8 479.9,184.4 512.5,193.2 545.1,195.4 577.7,197.6 610.3,197.6 643.0,197.6 675.6,202.0 708.2,202.0 740.8,202.0 773.4,197.6 806.0,206.4" fill="none" stroke="#58a6ff" stroke-width="1.5" stroke-linejoin="round"/><g ><line x1="56.0" y1="139" x2="58.5" y2="126.2" stroke="#58a6ff" stroke-width="1"/><line x1="58.5" y1="126.2" x2="61.9" y2="125.4" stroke="#58a6ff" stroke-width="1"/></g><text x="56.0" y="240" fill="#8b949e" font-family="SFMono-Regular, Consolas, 'Liberation Mono', Menlo, monospace" font-size="12" text-anchor="middle">07</text><g ><line x1="153.8" y1="139" x2="156.3" y2="126.2" stroke="#58a6ff" stroke-width="1"/><line x1="156.3" y1="126.2" x2="159.7" y2="125.4" stroke="#58a6ff" stroke-width="1"/></g><text x="153.8" y="240" fill="#8b949e" font-family="SFMono-Regular, Consolas, 'Liberation Mono', Menlo, monospace" font-size="12" text-anchor="middle">10</text><g ><line x1="251.7" y1="139" x2="257.6" y2="127.4" stroke="#58a6ff" stroke-width="1"/><line x1="257.6" y1="127.4" x2="261.1" y2="127.5" stroke="#58a6ff" stroke-width="1"/></g><text x="251.7" y="240" fill="#8b949e" font-family="SFMono-Regular, Consolas, 'Liberation Mono', Menlo, monospace" font-size="12" text-anchor="middle">13</text><g ><line x1="349.5" y1="139" x2="360.8" y2="132.5" stroke="#58a6ff" stroke-width="1"/><line x1="360.8" y1="132.5" x2="363.6" y2="134.5" stroke="#58a6ff" stroke-width="1"/></g><text x="349.5" y="240" fill="#8b949e" font-family="SFMono-Regular, Consolas, 'Liberation Mono', Menlo, monospace" font-size="12" text-anchor="middle">16</text><circle cx="447.3" cy="139" r="2.5" fill="none" stroke="#58a6ff" stroke-width="1"/><text x="447.3" y="240" fill="#8b949e" font-family="SFMono-Regular, Consolas, 'Liberation Mono', Menlo, monospace" font-size="12" text-anchor="middle">19</text><circle cx="545.1" cy="139" r="2.5" fill="none" stroke="#58a6ff" stroke-width="1"/><text x="545.1" y="240" fill="#8b949e" font-family="SFMono-Regular, Consolas, 'Liberation Mono', Menlo, monospace" font-size="12" text-anchor="middle">22</text><circle cx="643.0" cy="139" r="2.5" fill="none" stroke="#58a6ff" stroke-width="1"/><text x="643.0" y="240" fill="#8b949e" font-family="SFMono-Regular, Consolas, 'Liberation Mono', Menlo, monospace" font-size="12" text-anchor="middle">01</text><circle cx="740.8" cy="139" r="2.5" fill="none" stroke="#58a6ff" stroke-width="1"/><text x="740.8" y="240" fill="#8b949e" font-family="SFMono-Regular, Consolas, 'Liberation Mono', Menlo, monospace" font-size="12" text-anchor="middle">04</text><text x="24" y="254" fill="#8b949e" font-family="SFMono-Regular, Consolas, 'Liberation Mono', Menlo, monospace" font-size="12">ECMWF IFS via Open-Meteo (CC-BY 4.0) · generated 2026-09-15 23:30Z · refreshed daily by GitHub Actions</text></svg>
