<svg xmlns="http://www.w3.org/2000/svg" width="830" height="260" viewBox="0 0 830 260" role="img"><rect x="0.5" y="0.5" width="829" height="259" rx="6" fill="#0d1117" stroke="#30363d"/><text x="24" y="32" fill="#c9d1d9" font-family="SFMono-Regular, Consolas, 'Liberation Mono', Menlo, monospace" font-size="14" font-weight="bold" letter-spacing="1">CHENGDU · 24 H FORECAST · CST (UTC+8)</text><line x1="560" y1="27" x2="580" y2="27" stroke="#d29922" stroke-width="1.5"/><text x="586" y="31" fill="#8b949e" font-family="SFMono-Regular, Consolas, 'Liberation Mono', Menlo, monospace" font-size="12">2 m temp °C</text><line x1="692" y1="27" x2="712" y2="27" stroke="#58a6ff" stroke-width="1.5"/><text x="718" y="31" fill="#8b949e" font-family="SFMono-Regular, Consolas, 'Liberation Mono', Menlo, monospace" font-size="12">10 m wind kt</text><line x1="56" y1="120.0" x2="806" y2="120.0" stroke="#30363d" stroke-width="1"/><text x="48" y="124.0" fill="#8b949e" font-family="SFMono-Regular, Consolas, 'Liberation Mono', Menlo, monospace" font-size="12" text-anchor="end">25</text><line x1="56" y1="86.0" x2="806" y2="86.0" stroke="#30363d" stroke-width="1"/><text x="48" y="90.0" fill="#8b949e" font-family="SFMono-Regular, Consolas, 'Liberation Mono', Menlo, monospace" font-size="12" text-anchor="end">30</text><line x1="56" y1="52.0" x2="806" y2="52.0" stroke="#30363d" stroke-width="1"/><text x="48" y="56.0" fill="#8b949e" font-family="SFMono-Regular, Consolas, 'Liberation Mono', Menlo, monospace" font-size="12" text-anchor="end">35</text><polyline points="56.0,60.8 88.6,62.2 121.2,69.0 153.8,77.8 186.4,86.7 219.0,92.8 251.7,98.2 284.3,103.0 316.9,107.8 349.5,111.2 382.1,114.6 414.7,117.3 447.3,119.3 479.9,119.3 512.5,118.0 545.1,114.6 577.7,108.4 610.3,97.6 643.0,83.3 675.6,71.7 708.2,63.6 740.8,57.4 773.4,53.4 806.0,50.6" fill="none" stroke="#d29922" stroke-width="1.5" stroke-linejoin="round"/><line x1="56" y1="224.0" x2="806" y2="224.0" stroke="#30363d" stroke-width="1"/><text x="48" y="228.0" fill="#8b949e" font-family="SFMono-Regular, Consolas, 'Liberation Mono', Menlo, monospace" font-size="12" text-anchor="end">0</text><line x1="56" y1="191.0" x2="806" y2="191.0" stroke="#30363d" stroke-width="1"/><text x="48" y="195.0" fill="#8b949e" font-family="SFMono-Regular, Consolas, 'Liberation Mono', Menlo, monospace" font-size="12" text-anchor="end">2</text><line x1="56" y1="158.0" x2="806" y2="158.0" stroke="#30363d" stroke-width="1"/><text x="48" y="162.0" fill="#8b949e" font-family="SFMono-Regular, Consolas, 'Liberation Mono', Menlo, monospace" font-size="12" text-anchor="end">4</text><polyline points="56.0,164.6 88.6,156.4 121.2,159.7 153.8,167.9 186.4,169.6 219.0,171.2 251.7,174.5 284.3,179.4 316.9,181.1 349.5,181.1 382.1,184.4 414.7,194.3 447.3,205.8 479.9,217.4 512.5,224.0 545.1,212.4 577.7,209.2 610.3,209.2 643.0,210.8 675.6,212.4 708.2,200.9 740.8,179.4 773.4,166.2 806.0,166.2" fill="none" stroke="#58a6ff" stroke-width="1.5" stroke-linejoin="round"/><g ><line x1="56.0" y1="139" x2="48.4" y2="128.5" stroke="#58a6ff" stroke-width="1"/><line x1="48.4" y1="128.5" x2="50.1" y2="125.4" stroke="#58a6ff" stroke-width="1"/></g><text x="56.0" y="240" fill="#8b949e" font-family="SFMono-Regular, Consolas, 'Liberation Mono', Menlo, monospace" font-size="12" text-anchor="middle">16</text><g ><line x1="153.8" y1="139" x2="141.1" y2="136.1" stroke="#58a6ff" stroke-width="1"/><line x1="141.1" y1="136.1" x2="140.4" y2="132.7" stroke="#58a6ff" stroke-width="1"/></g><text x="153.8" y="240" fill="#8b949e" font-family="SFMono-Regular, Consolas, 'Liberation Mono', Menlo, monospace" font-size="12" text-anchor="middle">19</text><g ><line x1="251.7" y1="139" x2="239.7" y2="144.1" stroke="#58a6ff" stroke-width="1"/><line x1="239.7" y1="144.1" x2="237.1" y2="141.7" stroke="#58a6ff" stroke-width="1"/></g><text x="251.7" y="240" fill="#8b949e" font-family="SFMono-Regular, Consolas, 'Liberation Mono', Menlo, monospace" font-size="12" text-anchor="middle">22</text><g ><line x1="349.5" y1="139" x2="339.0" y2="146.6" stroke="#58a6ff" stroke-width="1"/><line x1="339.0" y1="146.6" x2="335.9" y2="144.9" stroke="#58a6ff" stroke-width="1"/></g><text x="349.5" y="240" fill="#8b949e" font-family="SFMono-Regular, Consolas, 'Liberation Mono', Menlo, monospace" font-size="12" text-anchor="middle">01</text><circle cx="447.3" cy="139" r="2.5" fill="none" stroke="#58a6ff" stroke-width="1"/><text x="447.3" y="240" fill="#8b949e" font-family="SFMono-Regular, Consolas, 'Liberation Mono', Menlo, monospace" font-size="12" text-anchor="middle">04</text><circle cx="545.1" cy="139" r="2.5" fill="none" stroke="#58a6ff" stroke-width="1"/><text x="545.1" y="240" fill="#8b949e" font-family="SFMono-Regular, Consolas, 'Liberation Mono', Menlo, monospace" font-size="12" text-anchor="middle">07</text><circle cx="643.0" cy="139" r="2.5" fill="none" stroke="#58a6ff" stroke-width="1"/><text x="643.0" y="240" fill="#8b949e" font-family="SFMono-Regular, Consolas, 'Liberation Mono', Menlo, monospace" font-size="12" text-anchor="middle">10</text><g ><line x1="740.8" y1="139" x2="741.7" y2="152.0" stroke="#58a6ff" stroke-width="1"/><line x1="741.7" y1="152.0" x2="738.6" y2="153.7" stroke="#58a6ff" stroke-width="1"/></g><text x="740.8" y="240" fill="#8b949e" font-family="SFMono-Regular, Consolas, 'Liberation Mono', Menlo, monospace" font-size="12" text-anchor="middle">13</text><text x="24" y="254" fill="#8b949e" font-family="SFMono-Regular, Consolas, 'Liberation Mono', Menlo, monospace" font-size="12">ECMWF IFS via Open-Meteo (CC-BY 4.0) · generated 2026-07-12 08:51Z · refreshed daily by GitHub Actions</text></svg>
