<svg xmlns="http://www.w3.org/2000/svg" width="830" height="260" viewBox="0 0 830 260" role="img"><rect x="0.5" y="0.5" width="829" height="259" rx="6" fill="#ffffff" stroke="#d0d7de"/><text x="24" y="32" fill="#1f2328" font-family="SFMono-Regular, Consolas, 'Liberation Mono', Menlo, monospace" font-size="14" font-weight="bold" letter-spacing="1">BEIJING · 24 H FORECAST · BJT (UTC+8)</text><line x1="560" y1="27" x2="580" y2="27" stroke="#9a6700" stroke-width="1.5"/><text x="586" y="31" fill="#57606a" font-family="SFMono-Regular, Consolas, 'Liberation Mono', Menlo, monospace" font-size="12">2 m temp °C</text><line x1="692" y1="27" x2="712" y2="27" stroke="#0969da" stroke-width="1.5"/><text x="718" y="31" fill="#57606a" font-family="SFMono-Regular, Consolas, 'Liberation Mono', Menlo, monospace" font-size="12">10 m wind kt</text><line x1="56" y1="120.0" x2="806" y2="120.0" stroke="#d0d7de" stroke-width="1"/><text x="48" y="124.0" fill="#57606a" font-family="SFMono-Regular, Consolas, 'Liberation Mono', Menlo, monospace" font-size="12" text-anchor="end">20</text><line x1="56" y1="97.3" x2="806" y2="97.3" stroke="#d0d7de" stroke-width="1"/><text x="48" y="101.3" fill="#57606a" font-family="SFMono-Regular, Consolas, 'Liberation Mono', Menlo, monospace" font-size="12" text-anchor="end">25</text><line x1="56" y1="74.7" x2="806" y2="74.7" stroke="#d0d7de" stroke-width="1"/><text x="48" y="78.7" fill="#57606a" font-family="SFMono-Regular, Consolas, 'Liberation Mono', Menlo, monospace" font-size="12" text-anchor="end">30</text><line x1="56" y1="52.0" x2="806" y2="52.0" stroke="#d0d7de" stroke-width="1"/><text x="48" y="56.0" fill="#57606a" font-family="SFMono-Regular, Consolas, 'Liberation Mono', Menlo, monospace" font-size="12" text-anchor="end">35</text><polyline points="56.0,78.7 88.6,78.3 121.2,81.5 153.8,85.5 186.4,89.6 219.0,91.9 251.7,93.7 284.3,95.1 316.9,96.0 349.5,97.3 382.1,97.8 414.7,98.7 447.3,99.6 479.9,99.1 512.5,97.3 545.1,94.6 577.7,90.5 610.3,85.1 643.0,78.3 675.6,72.9 708.2,68.8 740.8,66.1 773.4,63.8 806.0,62.0" fill="none" stroke="#9a6700" stroke-width="1.5" stroke-linejoin="round"/><line x1="56" y1="224.0" x2="806" y2="224.0" stroke="#d0d7de" stroke-width="1"/><text x="48" y="228.0" fill="#57606a" font-family="SFMono-Regular, Consolas, 'Liberation Mono', Menlo, monospace" font-size="12" text-anchor="end">1</text><line x1="56" y1="207.5" x2="806" y2="207.5" stroke="#d0d7de" stroke-width="1"/><text x="48" y="211.5" fill="#57606a" font-family="SFMono-Regular, Consolas, 'Liberation Mono', Menlo, monospace" font-size="12" text-anchor="end">2</text><line x1="56" y1="191.0" x2="806" y2="191.0" stroke="#d0d7de" stroke-width="1"/><text x="48" y="195.0" fill="#57606a" font-family="SFMono-Regular, Consolas, 'Liberation Mono', Menlo, monospace" font-size="12" text-anchor="end">3</text><line x1="56" y1="174.5" x2="806" y2="174.5" stroke="#d0d7de" stroke-width="1"/><text x="48" y="178.5" fill="#57606a" font-family="SFMono-Regular, Consolas, 'Liberation Mono', Menlo, monospace" font-size="12" text-anchor="end">4</text><line x1="56" y1="158.0" x2="806" y2="158.0" stroke="#d0d7de" stroke-width="1"/><text x="48" y="162.0" fill="#57606a" font-family="SFMono-Regular, Consolas, 'Liberation Mono', Menlo, monospace" font-size="12" text-anchor="end">5</text><polyline points="56.0,207.5 88.6,202.6 121.2,205.8 153.8,214.1 186.4,214.1 219.0,210.8 251.7,210.8 284.3,205.8 316.9,204.2 349.5,204.2 382.1,202.6 414.7,200.9 447.3,200.9 479.9,199.2 512.5,197.6 545.1,195.9 577.7,192.7 610.3,184.4 643.0,174.5 675.6,167.9 708.2,162.9 740.8,164.6 773.4,169.6 806.0,182.8" fill="none" stroke="#0969da" stroke-width="1.5" stroke-linejoin="round"/><circle cx="56.0" cy="139" r="2.5" fill="none" stroke="#0969da" stroke-width="1"/><text x="56.0" y="240" fill="#57606a" font-family="SFMono-Regular, Consolas, 'Liberation Mono', Menlo, monospace" font-size="12" text-anchor="middle">16</text><circle cx="153.8" cy="139" r="2.5" fill="none" stroke="#0969da" stroke-width="1"/><text x="153.8" y="240" fill="#57606a" font-family="SFMono-Regular, Consolas, 'Liberation Mono', Menlo, monospace" font-size="12" text-anchor="middle">19</text><circle cx="251.7" cy="139" r="2.5" fill="none" stroke="#0969da" stroke-width="1"/><text x="251.7" y="240" fill="#57606a" font-family="SFMono-Regular, Consolas, 'Liberation Mono', Menlo, monospace" font-size="12" text-anchor="middle">22</text><circle cx="349.5" cy="139" r="2.5" fill="none" stroke="#0969da" stroke-width="1"/><text x="349.5" y="240" fill="#57606a" font-family="SFMono-Regular, Consolas, 'Liberation Mono', Menlo, monospace" font-size="12" text-anchor="middle">01</text><circle cx="447.3" cy="139" r="2.5" fill="none" stroke="#0969da" stroke-width="1"/><text x="447.3" y="240" fill="#57606a" font-family="SFMono-Regular, Consolas, 'Liberation Mono', Menlo, monospace" font-size="12" text-anchor="middle">04</text><g ><line x1="545.1" y1="139" x2="544.2" y2="126.0" stroke="#0969da" stroke-width="1"/><line x1="544.2" y1="126.0" x2="547.3" y2="124.3" stroke="#0969da" stroke-width="1"/></g><text x="545.1" y="240" fill="#57606a" font-family="SFMono-Regular, Consolas, 'Liberation Mono', Menlo, monospace" font-size="12" text-anchor="middle">07</text><g ><line x1="643.0" y1="139" x2="648.1" y2="127.0" stroke="#0969da" stroke-width="1"/><line x1="648.1" y1="127.0" x2="651.6" y2="126.9" stroke="#0969da" stroke-width="1"/></g><text x="643.0" y="240" fill="#57606a" font-family="SFMono-Regular, Consolas, 'Liberation Mono', Menlo, monospace" font-size="12" text-anchor="middle">10</text><g ><line x1="740.8" y1="139" x2="746.9" y2="127.5" stroke="#0969da" stroke-width="1"/><line x1="746.9" y1="127.5" x2="750.4" y2="127.7" stroke="#0969da" stroke-width="1"/></g><text x="740.8" y="240" fill="#57606a" font-family="SFMono-Regular, Consolas, 'Liberation Mono', Menlo, monospace" font-size="12" text-anchor="middle">13</text><text x="24" y="254" fill="#57606a" font-family="SFMono-Regular, Consolas, 'Liberation Mono', Menlo, monospace" font-size="12">ECMWF IFS via Open-Meteo (CC-BY 4.0) · generated 2026-07-12 08:25Z · refreshed daily by GitHub Actions</text></svg>
