<svg xmlns="http://www.w3.org/2000/svg" width="830" height="260" viewBox="0 0 830 260" role="img"><rect x="0.5" y="0.5" width="829" height="259" rx="6" fill="#0d1117" stroke="#30363d"/><text x="24" y="32" fill="#c9d1d9" font-family="SFMono-Regular, Consolas, 'Liberation Mono', Menlo, monospace" font-size="14" font-weight="bold" letter-spacing="1">CHENGDU · 24 H FORECAST · CST (UTC+8)</text><line x1="560" y1="27" x2="580" y2="27" stroke="#d29922" stroke-width="1.5"/><text x="586" y="31" fill="#8b949e" font-family="SFMono-Regular, Consolas, 'Liberation Mono', Menlo, monospace" font-size="12">2 m temp °C</text><line x1="692" y1="27" x2="712" y2="27" stroke="#58a6ff" stroke-width="1.5"/><text x="718" y="31" fill="#8b949e" font-family="SFMono-Regular, Consolas, 'Liberation Mono', Menlo, monospace" font-size="12">10 m wind kt</text><line x1="56" y1="120.0" x2="806" y2="120.0" stroke="#30363d" stroke-width="1"/><text x="48" y="124.0" fill="#8b949e" font-family="SFMono-Regular, Consolas, 'Liberation Mono', Menlo, monospace" font-size="12" text-anchor="end">20</text><line x1="56" y1="103.0" x2="806" y2="103.0" stroke="#30363d" stroke-width="1"/><text x="48" y="107.0" fill="#8b949e" font-family="SFMono-Regular, Consolas, 'Liberation Mono', Menlo, monospace" font-size="12" text-anchor="end">22</text><line x1="56" y1="86.0" x2="806" y2="86.0" stroke="#30363d" stroke-width="1"/><text x="48" y="90.0" fill="#8b949e" font-family="SFMono-Regular, Consolas, 'Liberation Mono', Menlo, monospace" font-size="12" text-anchor="end">24</text><line x1="56" y1="69.0" x2="806" y2="69.0" stroke="#30363d" stroke-width="1"/><text x="48" y="73.0" fill="#8b949e" font-family="SFMono-Regular, Consolas, 'Liberation Mono', Menlo, monospace" font-size="12" text-anchor="end">26</text><line x1="56" y1="52.0" x2="806" y2="52.0" stroke="#30363d" stroke-width="1"/><text x="48" y="56.0" fill="#8b949e" font-family="SFMono-Regular, Consolas, 'Liberation Mono', Menlo, monospace" font-size="12" text-anchor="end">28</text><polyline points="56.0,105.6 88.6,93.6 121.2,78.4 153.8,65.6 186.4,57.9 219.0,53.7 251.7,51.1 284.3,49.4 316.9,49.4 349.5,53.7 382.1,64.8 414.7,80.1 447.3,91.9 479.9,98.8 512.5,102.1 545.1,103.9 577.7,103.9 610.3,102.1 643.0,101.3 675.6,102.1 708.2,103.0 740.8,103.9 773.4,103.9 806.0,103.9" fill="none" stroke="#d29922" stroke-width="1.5" stroke-linejoin="round"/><line x1="56" y1="224.0" x2="806" y2="224.0" stroke="#30363d" stroke-width="1"/><text x="48" y="228.0" fill="#8b949e" font-family="SFMono-Regular, Consolas, 'Liberation Mono', Menlo, monospace" font-size="12" text-anchor="end">0</text><line x1="56" y1="210.8" x2="806" y2="210.8" stroke="#30363d" stroke-width="1"/><text x="48" y="214.8" fill="#8b949e" font-family="SFMono-Regular, Consolas, 'Liberation Mono', Menlo, monospace" font-size="12" text-anchor="end">1</text><line x1="56" y1="197.6" x2="806" y2="197.6" stroke="#30363d" stroke-width="1"/><text x="48" y="201.6" fill="#8b949e" font-family="SFMono-Regular, Consolas, 'Liberation Mono', Menlo, monospace" font-size="12" text-anchor="end">2</text><line x1="56" y1="184.4" x2="806" y2="184.4" stroke="#30363d" stroke-width="1"/><text x="48" y="188.4" fill="#8b949e" font-family="SFMono-Regular, Consolas, 'Liberation Mono', Menlo, monospace" font-size="12" text-anchor="end">3</text><line x1="56" y1="171.2" x2="806" y2="171.2" stroke="#30363d" stroke-width="1"/><text x="48" y="175.2" fill="#8b949e" font-family="SFMono-Regular, Consolas, 'Liberation Mono', Menlo, monospace" font-size="12" text-anchor="end">4</text><line x1="56" y1="158.0" x2="806" y2="158.0" stroke="#30363d" stroke-width="1"/><text x="48" y="162.0" fill="#8b949e" font-family="SFMono-Regular, Consolas, 'Liberation Mono', Menlo, monospace" font-size="12" text-anchor="end">5</text><polyline points="56.0,185.7 88.6,179.1 121.2,165.9 153.8,159.3 186.4,162.0 219.0,169.9 251.7,175.2 284.3,179.1 316.9,181.8 349.5,185.7 382.1,185.7 414.7,185.7 447.3,187.0 479.9,192.3 512.5,197.6 545.1,205.5 577.7,212.1 610.3,200.2 643.0,191.0 675.6,197.6 708.2,205.5 740.8,202.9 773.4,195.0 806.0,187.0" fill="none" stroke="#58a6ff" stroke-width="1.5" stroke-linejoin="round"/><g ><line x1="56.0" y1="139" x2="64.7" y2="148.7" stroke="#58a6ff" stroke-width="1"/><line x1="64.7" y1="148.7" x2="63.3" y2="151.9" stroke="#58a6ff" stroke-width="1"/></g><text x="56.0" y="240" fill="#8b949e" font-family="SFMono-Regular, Consolas, 'Liberation Mono', Menlo, monospace" font-size="12" text-anchor="middle">08</text><g ><line x1="153.8" y1="139" x2="166.3" y2="142.6" stroke="#58a6ff" stroke-width="1"/><line x1="166.3" y1="142.6" x2="166.8" y2="146.0" stroke="#58a6ff" stroke-width="1"/></g><text x="153.8" y="240" fill="#8b949e" font-family="SFMono-Regular, Consolas, 'Liberation Mono', Menlo, monospace" font-size="12" text-anchor="middle">11</text><g ><line x1="251.7" y1="139" x2="261.8" y2="147.2" stroke="#58a6ff" stroke-width="1"/><line x1="261.8" y1="147.2" x2="261.0" y2="150.6" stroke="#58a6ff" stroke-width="1"/></g><text x="251.7" y="240" fill="#8b949e" font-family="SFMono-Regular, Consolas, 'Liberation Mono', Menlo, monospace" font-size="12" text-anchor="middle">14</text><g ><line x1="349.5" y1="139" x2="359.2" y2="147.7" stroke="#58a6ff" stroke-width="1"/><line x1="359.2" y1="147.7" x2="358.1" y2="151.0" stroke="#58a6ff" stroke-width="1"/></g><text x="349.5" y="240" fill="#8b949e" font-family="SFMono-Regular, Consolas, 'Liberation Mono', Menlo, monospace" font-size="12" text-anchor="middle">17</text><g ><line x1="447.3" y1="139" x2="458.1" y2="146.3" stroke="#58a6ff" stroke-width="1"/><line x1="458.1" y1="146.3" x2="457.5" y2="149.7" stroke="#58a6ff" stroke-width="1"/></g><text x="447.3" y="240" fill="#8b949e" font-family="SFMono-Regular, Consolas, 'Liberation Mono', Menlo, monospace" font-size="12" text-anchor="middle">20</text><circle cx="545.1" cy="139" r="2.5" fill="none" stroke="#58a6ff" stroke-width="1"/><text x="545.1" y="240" fill="#8b949e" font-family="SFMono-Regular, Consolas, 'Liberation Mono', Menlo, monospace" font-size="12" text-anchor="middle">23</text><circle cx="643.0" cy="139" r="2.5" fill="none" stroke="#58a6ff" stroke-width="1"/><text x="643.0" y="240" fill="#8b949e" font-family="SFMono-Regular, Consolas, 'Liberation Mono', Menlo, monospace" font-size="12" text-anchor="middle">02</text><circle cx="740.8" cy="139" r="2.5" fill="none" stroke="#58a6ff" stroke-width="1"/><text x="740.8" y="240" fill="#8b949e" font-family="SFMono-Regular, Consolas, 'Liberation Mono', Menlo, monospace" font-size="12" text-anchor="middle">05</text><text x="24" y="254" fill="#8b949e" font-family="SFMono-Regular, Consolas, 'Liberation Mono', Menlo, monospace" font-size="12">ECMWF IFS via Open-Meteo (CC-BY 4.0) · generated 2026-09-29 00:57Z · refreshed daily by GitHub Actions</text></svg>
