<svg xmlns="http://www.w3.org/2000/svg" width="830" height="260" viewBox="0 0 830 260" role="img"><rect x="0.5" y="0.5" width="829" height="259" rx="6" fill="#ffffff" stroke="#d0d7de"/><text x="24" y="32" fill="#1f2328" font-family="SFMono-Regular, Consolas, 'Liberation Mono', Menlo, monospace" font-size="14" font-weight="bold" letter-spacing="1">CHENGDU · 24 H FORECAST · CST (UTC+8)</text><line x1="560" y1="27" x2="580" y2="27" stroke="#9a6700" stroke-width="1.5"/><text x="586" y="31" fill="#57606a" font-family="SFMono-Regular, Consolas, 'Liberation Mono', Menlo, monospace" font-size="12">2 m temp °C</text><line x1="692" y1="27" x2="712" y2="27" stroke="#0969da" stroke-width="1.5"/><text x="718" y="31" fill="#57606a" font-family="SFMono-Regular, Consolas, 'Liberation Mono', Menlo, monospace" font-size="12">10 m wind kt</text><line x1="56" y1="120.0" x2="806" y2="120.0" stroke="#d0d7de" stroke-width="1"/><text x="48" y="124.0" fill="#57606a" font-family="SFMono-Regular, Consolas, 'Liberation Mono', Menlo, monospace" font-size="12" text-anchor="end">20</text><line x1="56" y1="103.0" x2="806" y2="103.0" stroke="#d0d7de" stroke-width="1"/><text x="48" y="107.0" fill="#57606a" font-family="SFMono-Regular, Consolas, 'Liberation Mono', Menlo, monospace" font-size="12" text-anchor="end">22</text><line x1="56" y1="86.0" x2="806" y2="86.0" stroke="#d0d7de" stroke-width="1"/><text x="48" y="90.0" fill="#57606a" font-family="SFMono-Regular, Consolas, 'Liberation Mono', Menlo, monospace" font-size="12" text-anchor="end">24</text><line x1="56" y1="69.0" x2="806" y2="69.0" stroke="#d0d7de" stroke-width="1"/><text x="48" y="73.0" fill="#57606a" font-family="SFMono-Regular, Consolas, 'Liberation Mono', Menlo, monospace" font-size="12" text-anchor="end">26</text><line x1="56" y1="52.0" x2="806" y2="52.0" stroke="#d0d7de" stroke-width="1"/><text x="48" y="56.0" fill="#57606a" font-family="SFMono-Regular, Consolas, 'Liberation Mono', Menlo, monospace" font-size="12" text-anchor="end">28</text><polyline points="56.0,111.5 88.6,110.6 121.2,108.1 153.8,103.0 186.4,92.8 219.0,80.1 251.7,69.0 284.3,63.1 316.9,59.6 349.5,57.1 382.1,55.4 414.7,54.6 447.3,57.1 479.9,63.1 512.5,71.6 545.1,79.2 577.7,84.3 610.3,87.7 643.0,91.1 675.6,93.6 708.2,96.2 740.8,97.9 773.4,99.6 806.0,101.3" fill="none" stroke="#9a6700" stroke-width="1.5" stroke-linejoin="round"/><line x1="56" y1="224.0" x2="806" y2="224.0" stroke="#d0d7de" stroke-width="1"/><text x="48" y="228.0" fill="#57606a" font-family="SFMono-Regular, Consolas, 'Liberation Mono', Menlo, monospace" font-size="12" text-anchor="end">0</text><line x1="56" y1="202.0" x2="806" y2="202.0" stroke="#d0d7de" stroke-width="1"/><text x="48" y="206.0" fill="#57606a" font-family="SFMono-Regular, Consolas, 'Liberation Mono', Menlo, monospace" font-size="12" text-anchor="end">1</text><line x1="56" y1="180.0" x2="806" y2="180.0" stroke="#d0d7de" stroke-width="1"/><text x="48" y="184.0" fill="#57606a" font-family="SFMono-Regular, Consolas, 'Liberation Mono', Menlo, monospace" font-size="12" text-anchor="end">2</text><line x1="56" y1="158.0" x2="806" y2="158.0" stroke="#d0d7de" stroke-width="1"/><text x="48" y="162.0" fill="#57606a" font-family="SFMono-Regular, Consolas, 'Liberation Mono', Menlo, monospace" font-size="12" text-anchor="end">3</text><polyline points="56.0,206.4 88.6,197.6 121.2,180.0 153.8,171.2 186.4,166.8 219.0,162.4 251.7,160.2 284.3,162.4 316.9,164.6 349.5,166.8 382.1,169.0 414.7,166.8 447.3,169.0 479.9,177.8 512.5,197.6 545.1,206.4 577.7,210.8 610.3,210.8 643.0,206.4 675.6,202.0 708.2,191.0 740.8,182.2 773.4,182.2 806.0,186.6" fill="none" stroke="#0969da" stroke-width="1.5" stroke-linejoin="round"/><circle cx="56.0" cy="139" r="2.5" fill="none" stroke="#0969da" stroke-width="1"/><text x="56.0" y="240" fill="#57606a" font-family="SFMono-Regular, Consolas, 'Liberation Mono', Menlo, monospace" font-size="12" text-anchor="middle">05</text><circle cx="153.8" cy="139" r="2.5" fill="none" stroke="#0969da" stroke-width="1"/><text x="153.8" y="240" fill="#57606a" font-family="SFMono-Regular, Consolas, 'Liberation Mono', Menlo, monospace" font-size="12" text-anchor="middle">08</text><g ><line x1="251.7" y1="139" x2="242.0" y2="147.7" stroke="#0969da" stroke-width="1"/><line x1="242.0" y1="147.7" x2="238.8" y2="146.3" stroke="#0969da" stroke-width="1"/></g><text x="251.7" y="240" fill="#57606a" font-family="SFMono-Regular, Consolas, 'Liberation Mono', Menlo, monospace" font-size="12" text-anchor="middle">11</text><g ><line x1="349.5" y1="139" x2="336.7" y2="141.0" stroke="#0969da" stroke-width="1"/><line x1="336.7" y1="141.0" x2="334.7" y2="138.1" stroke="#0969da" stroke-width="1"/></g><text x="349.5" y="240" fill="#57606a" font-family="SFMono-Regular, Consolas, 'Liberation Mono', Menlo, monospace" font-size="12" text-anchor="middle">14</text><circle cx="447.3" cy="139" r="2.5" fill="none" stroke="#0969da" stroke-width="1"/><text x="447.3" y="240" fill="#57606a" font-family="SFMono-Regular, Consolas, 'Liberation Mono', Menlo, monospace" font-size="12" text-anchor="middle">17</text><circle cx="545.1" cy="139" r="2.5" fill="none" stroke="#0969da" stroke-width="1"/><text x="545.1" y="240" fill="#57606a" font-family="SFMono-Regular, Consolas, 'Liberation Mono', Menlo, monospace" font-size="12" text-anchor="middle">20</text><circle cx="643.0" cy="139" r="2.5" fill="none" stroke="#0969da" stroke-width="1"/><text x="643.0" y="240" fill="#57606a" font-family="SFMono-Regular, Consolas, 'Liberation Mono', Menlo, monospace" font-size="12" text-anchor="middle">23</text><circle cx="740.8" cy="139" r="2.5" fill="none" stroke="#0969da" stroke-width="1"/><text x="740.8" y="240" fill="#57606a" font-family="SFMono-Regular, Consolas, 'Liberation Mono', Menlo, monospace" font-size="12" text-anchor="middle">02</text><text x="24" y="254" fill="#57606a" font-family="SFMono-Regular, Consolas, 'Liberation Mono', Menlo, monospace" font-size="12">ECMWF IFS via Open-Meteo (CC-BY 4.0) · generated 2026-08-18 21:34Z · refreshed daily by GitHub Actions</text></svg>
